<mxfile host="app.diagrams.net" modified="2022-03-16T11:14:35.172Z" agent="5.0 (X11)" etag="oY9fEL5GA6fcHCiEbRkF" version="17.1.3" type="github" pages="3">
  <diagram id="0lEdSLWRQiYzRSGE45TF" name="Page-1">
    <mxGraphModel dx="1422" dy="883" grid="1" gridSize="10" guides="1" tooltips="1" connect="1" arrows="1" fold="1" page="1" pageScale="1" pageWidth="850" pageHeight="1100" math="0" shadow="0">
      <root>
        <mxCell id="0" />
        <mxCell id="1" parent="0" />
        <mxCell id="haPBkJ_DhKKpMTgAlbWv-41" value="BasePondObject" style="html=1;" parent="1" vertex="1">
          <mxGeometry x="390" y="150" width="110" height="50" as="geometry" />
        </mxCell>
        <mxCell id="haPBkJ_DhKKpMTgAlbWv-42" value="Duck" style="swimlane;fontStyle=1;align=center;verticalAlign=top;childLayout=stackLayout;horizontal=1;startSize=26;horizontalStack=0;resizeParent=1;resizeParentMax=0;resizeLast=0;collapsible=1;marginBottom=0;" parent="1" vertex="1">
          <mxGeometry x="190" y="256" width="160" height="86" as="geometry">
            <mxRectangle x="130" y="256" width="60" height="26" as="alternateBounds" />
          </mxGeometry>
        </mxCell>
        <mxCell id="haPBkJ_DhKKpMTgAlbWv-43" value="x, y, dx, dy, imageName" style="text;strokeColor=none;fillColor=none;align=left;verticalAlign=top;spacingLeft=4;spacingRight=4;overflow=hidden;rotatable=0;points=[[0,0.5],[1,0.5]];portConstraint=eastwest;" parent="haPBkJ_DhKKpMTgAlbWv-42" vertex="1">
          <mxGeometry y="26" width="160" height="26" as="geometry" />
        </mxCell>
        <mxCell id="haPBkJ_DhKKpMTgAlbWv-44" value="" style="line;strokeWidth=1;fillColor=none;align=left;verticalAlign=middle;spacingTop=-1;spacingLeft=3;spacingRight=3;rotatable=0;labelPosition=right;points=[];portConstraint=eastwest;" parent="haPBkJ_DhKKpMTgAlbWv-42" vertex="1">
          <mxGeometry y="52" width="160" height="8" as="geometry" />
        </mxCell>
        <mxCell id="haPBkJ_DhKKpMTgAlbWv-45" value="+ quack(double): String" style="text;strokeColor=none;fillColor=none;align=left;verticalAlign=top;spacingLeft=4;spacingRight=4;overflow=hidden;rotatable=0;points=[[0,0.5],[1,0.5]];portConstraint=eastwest;" parent="haPBkJ_DhKKpMTgAlbWv-42" vertex="1">
          <mxGeometry y="60" width="160" height="26" as="geometry" />
        </mxCell>
        <mxCell id="haPBkJ_DhKKpMTgAlbWv-46" value="Duckling" style="swimlane;fontStyle=1;align=center;verticalAlign=top;childLayout=stackLayout;horizontal=1;startSize=26;horizontalStack=0;resizeParent=1;resizeParentMax=0;resizeLast=0;collapsible=1;marginBottom=0;" parent="1" vertex="1" collapsed="1">
          <mxGeometry x="330" y="440" width="80" height="26" as="geometry">
            <mxRectangle x="90" y="426" width="160" height="86" as="alternateBounds" />
          </mxGeometry>
        </mxCell>
        <mxCell id="haPBkJ_DhKKpMTgAlbWv-47" value="+ field: type" style="text;strokeColor=none;fillColor=none;align=left;verticalAlign=top;spacingLeft=4;spacingRight=4;overflow=hidden;rotatable=0;points=[[0,0.5],[1,0.5]];portConstraint=eastwest;" parent="haPBkJ_DhKKpMTgAlbWv-46" vertex="1">
          <mxGeometry y="26" width="160" height="26" as="geometry" />
        </mxCell>
        <mxCell id="haPBkJ_DhKKpMTgAlbWv-48" value="" style="line;strokeWidth=1;fillColor=none;align=left;verticalAlign=middle;spacingTop=-1;spacingLeft=3;spacingRight=3;rotatable=0;labelPosition=right;points=[];portConstraint=eastwest;" parent="haPBkJ_DhKKpMTgAlbWv-46" vertex="1">
          <mxGeometry y="52" width="160" height="8" as="geometry" />
        </mxCell>
        <mxCell id="haPBkJ_DhKKpMTgAlbWv-49" value="+ method(type): type" style="text;strokeColor=none;fillColor=none;align=left;verticalAlign=top;spacingLeft=4;spacingRight=4;overflow=hidden;rotatable=0;points=[[0,0.5],[1,0.5]];portConstraint=eastwest;" parent="haPBkJ_DhKKpMTgAlbWv-46" vertex="1">
          <mxGeometry y="60" width="160" height="26" as="geometry" />
        </mxCell>
        <mxCell id="haPBkJ_DhKKpMTgAlbWv-50" value="Frog" style="swimlane;fontStyle=1;align=center;verticalAlign=top;childLayout=stackLayout;horizontal=1;startSize=26;horizontalStack=0;resizeParent=1;resizeParentMax=0;resizeLast=0;collapsible=1;marginBottom=0;" parent="1" vertex="1" collapsed="1">
          <mxGeometry x="470" y="300" width="60" height="26" as="geometry">
            <mxRectangle x="410" y="336" width="160" height="86" as="alternateBounds" />
          </mxGeometry>
        </mxCell>
        <mxCell id="haPBkJ_DhKKpMTgAlbWv-51" value="+ field: type" style="text;strokeColor=none;fillColor=none;align=left;verticalAlign=top;spacingLeft=4;spacingRight=4;overflow=hidden;rotatable=0;points=[[0,0.5],[1,0.5]];portConstraint=eastwest;" parent="haPBkJ_DhKKpMTgAlbWv-50" vertex="1">
          <mxGeometry y="26" width="160" height="26" as="geometry" />
        </mxCell>
        <mxCell id="haPBkJ_DhKKpMTgAlbWv-52" value="" style="line;strokeWidth=1;fillColor=none;align=left;verticalAlign=middle;spacingTop=-1;spacingLeft=3;spacingRight=3;rotatable=0;labelPosition=right;points=[];portConstraint=eastwest;" parent="haPBkJ_DhKKpMTgAlbWv-50" vertex="1">
          <mxGeometry y="52" width="160" height="8" as="geometry" />
        </mxCell>
        <mxCell id="haPBkJ_DhKKpMTgAlbWv-53" value="+ method(type): type" style="text;strokeColor=none;fillColor=none;align=left;verticalAlign=top;spacingLeft=4;spacingRight=4;overflow=hidden;rotatable=0;points=[[0,0.5],[1,0.5]];portConstraint=eastwest;" parent="haPBkJ_DhKKpMTgAlbWv-50" vertex="1">
          <mxGeometry y="60" width="160" height="26" as="geometry" />
        </mxCell>
        <mxCell id="haPBkJ_DhKKpMTgAlbWv-58" value="Extends" style="endArrow=block;endSize=16;endFill=0;html=1;rounded=0;" parent="1" source="haPBkJ_DhKKpMTgAlbWv-46" target="haPBkJ_DhKKpMTgAlbWv-42" edge="1">
          <mxGeometry width="160" relative="1" as="geometry">
            <mxPoint x="180" y="376" as="sourcePoint" />
            <mxPoint x="340" y="376" as="targetPoint" />
            <Array as="points">
              <mxPoint x="320" y="370" />
            </Array>
          </mxGeometry>
        </mxCell>
        <mxCell id="haPBkJ_DhKKpMTgAlbWv-59" value="Extends" style="endArrow=block;endSize=16;endFill=0;html=1;rounded=0;" parent="1" source="haPBkJ_DhKKpMTgAlbWv-50" target="haPBkJ_DhKKpMTgAlbWv-41" edge="1">
          <mxGeometry width="160" relative="1" as="geometry">
            <mxPoint x="180" y="376" as="sourcePoint" />
            <mxPoint x="336.0336538461538" y="196" as="targetPoint" />
          </mxGeometry>
        </mxCell>
        <mxCell id="haPBkJ_DhKKpMTgAlbWv-60" value="Extends" style="endArrow=block;endSize=16;endFill=0;html=1;rounded=0;" parent="1" source="haPBkJ_DhKKpMTgAlbWv-42" target="haPBkJ_DhKKpMTgAlbWv-41" edge="1">
          <mxGeometry width="160" relative="1" as="geometry">
            <mxPoint x="180" y="376" as="sourcePoint" />
            <mxPoint x="294.4921875" y="196" as="targetPoint" />
          </mxGeometry>
        </mxCell>
        <mxCell id="haPBkJ_DhKKpMTgAlbWv-61" value="«interface»&lt;br&gt;&lt;b&gt;PondObject&lt;/b&gt;" style="html=1;" parent="1" vertex="1">
          <mxGeometry x="360" y="40" width="110" height="50" as="geometry" />
        </mxCell>
        <mxCell id="haPBkJ_DhKKpMTgAlbWv-62" value="" style="endArrow=block;dashed=1;endFill=0;endSize=12;html=1;rounded=0;" parent="1" source="haPBkJ_DhKKpMTgAlbWv-41" target="haPBkJ_DhKKpMTgAlbWv-61" edge="1">
          <mxGeometry width="160" relative="1" as="geometry">
            <mxPoint x="220" y="270" as="sourcePoint" />
            <mxPoint x="310" y="90" as="targetPoint" />
          </mxGeometry>
        </mxCell>
        <mxCell id="haPBkJ_DhKKpMTgAlbWv-63" value="" style="endArrow=open;endFill=1;endSize=12;html=1;rounded=0;" parent="1" source="haPBkJ_DhKKpMTgAlbWv-46" target="haPBkJ_DhKKpMTgAlbWv-50" edge="1">
          <mxGeometry width="160" relative="1" as="geometry">
            <mxPoint x="220" y="270" as="sourcePoint" />
            <mxPoint x="380" y="270" as="targetPoint" />
          </mxGeometry>
        </mxCell>
        <mxCell id="haPBkJ_DhKKpMTgAlbWv-66" value="Pond" style="swimlane;fontStyle=0;childLayout=stackLayout;horizontal=1;startSize=26;fillColor=none;horizontalStack=0;resizeParent=1;resizeParentMax=0;resizeLast=0;collapsible=1;marginBottom=0;" parent="1" vertex="1">
          <mxGeometry x="20" y="120" width="170" height="52" as="geometry" />
        </mxCell>
        <mxCell id="haPBkJ_DhKKpMTgAlbWv-67" value="+ objs: List&lt;PondObject&gt;" style="text;strokeColor=none;fillColor=none;align=left;verticalAlign=top;spacingLeft=4;spacingRight=4;overflow=hidden;rotatable=0;points=[[0,0.5],[1,0.5]];portConstraint=eastwest;" parent="haPBkJ_DhKKpMTgAlbWv-66" vertex="1">
          <mxGeometry y="26" width="170" height="26" as="geometry" />
        </mxCell>
        <mxCell id="haPBkJ_DhKKpMTgAlbWv-71" value="Relation" style="endArrow=open;html=1;endSize=12;startArrow=diamondThin;startSize=14;startFill=0;edgeStyle=orthogonalEdgeStyle;rounded=0;exitX=1;exitY=0.25;exitDx=0;exitDy=0;entryX=0.25;entryY=1;entryDx=0;entryDy=0;" parent="1" source="haPBkJ_DhKKpMTgAlbWv-66" target="haPBkJ_DhKKpMTgAlbWv-61" edge="1">
          <mxGeometry relative="1" as="geometry">
            <mxPoint x="170" y="270" as="sourcePoint" />
            <mxPoint x="330" y="270" as="targetPoint" />
          </mxGeometry>
        </mxCell>
        <mxCell id="haPBkJ_DhKKpMTgAlbWv-72" value="0..1" style="edgeLabel;resizable=0;html=1;align=left;verticalAlign=top;" parent="haPBkJ_DhKKpMTgAlbWv-71" connectable="0" vertex="1">
          <mxGeometry x="-1" relative="1" as="geometry" />
        </mxCell>
        <mxCell id="haPBkJ_DhKKpMTgAlbWv-73" value="0..n" style="edgeLabel;resizable=0;html=1;align=right;verticalAlign=top;" parent="haPBkJ_DhKKpMTgAlbWv-71" connectable="0" vertex="1">
          <mxGeometry x="1" relative="1" as="geometry" />
        </mxCell>
        <mxCell id="haPBkJ_DhKKpMTgAlbWv-74" value="Foot" style="swimlane;fontStyle=1;align=center;verticalAlign=top;childLayout=stackLayout;horizontal=1;startSize=26;horizontalStack=0;resizeParent=1;resizeParentMax=0;resizeLast=0;collapsible=1;marginBottom=0;" parent="1" vertex="1">
          <mxGeometry x="25" y="380" width="160" height="86" as="geometry" />
        </mxCell>
        <mxCell id="haPBkJ_DhKKpMTgAlbWv-75" value="+ field: type" style="text;strokeColor=none;fillColor=none;align=left;verticalAlign=top;spacingLeft=4;spacingRight=4;overflow=hidden;rotatable=0;points=[[0,0.5],[1,0.5]];portConstraint=eastwest;" parent="haPBkJ_DhKKpMTgAlbWv-74" vertex="1">
          <mxGeometry y="26" width="160" height="26" as="geometry" />
        </mxCell>
        <mxCell id="haPBkJ_DhKKpMTgAlbWv-76" value="" style="line;strokeWidth=1;fillColor=none;align=left;verticalAlign=middle;spacingTop=-1;spacingLeft=3;spacingRight=3;rotatable=0;labelPosition=right;points=[];portConstraint=eastwest;" parent="haPBkJ_DhKKpMTgAlbWv-74" vertex="1">
          <mxGeometry y="52" width="160" height="8" as="geometry" />
        </mxCell>
        <mxCell id="haPBkJ_DhKKpMTgAlbWv-77" value="+ method(type): type" style="text;strokeColor=none;fillColor=none;align=left;verticalAlign=top;spacingLeft=4;spacingRight=4;overflow=hidden;rotatable=0;points=[[0,0.5],[1,0.5]];portConstraint=eastwest;" parent="haPBkJ_DhKKpMTgAlbWv-74" vertex="1">
          <mxGeometry y="60" width="160" height="26" as="geometry" />
        </mxCell>
        <mxCell id="haPBkJ_DhKKpMTgAlbWv-78" value="1" style="endArrow=open;html=1;endSize=12;startArrow=diamondThin;startSize=14;startFill=1;edgeStyle=orthogonalEdgeStyle;align=left;verticalAlign=bottom;rounded=0;" parent="1" source="haPBkJ_DhKKpMTgAlbWv-42" target="haPBkJ_DhKKpMTgAlbWv-74" edge="1">
          <mxGeometry x="-1" y="3" relative="1" as="geometry">
            <mxPoint x="220" y="270" as="sourcePoint" />
            <mxPoint x="330" y="270" as="targetPoint" />
          </mxGeometry>
        </mxCell>
        <mxCell id="haPBkJ_DhKKpMTgAlbWv-79" value="&lt;div&gt;«interface&lt;b&gt;»&lt;/b&gt;&lt;/div&gt;&lt;div&gt;&lt;b&gt;Comparable&lt;br&gt;&lt;/b&gt;&lt;/div&gt;" style="html=1;" parent="1" vertex="1">
          <mxGeometry x="90" y="10" width="110" height="50" as="geometry" />
        </mxCell>
        <mxCell id="haPBkJ_DhKKpMTgAlbWv-80" value="Extends" style="endArrow=block;endSize=16;endFill=0;html=1;rounded=0;" parent="1" source="haPBkJ_DhKKpMTgAlbWv-61" target="haPBkJ_DhKKpMTgAlbWv-79" edge="1">
          <mxGeometry width="160" relative="1" as="geometry">
            <mxPoint x="340" y="220" as="sourcePoint" />
            <mxPoint x="500" y="220" as="targetPoint" />
          </mxGeometry>
        </mxCell>
        <mxCell id="haPBkJ_DhKKpMTgAlbWv-81" value="&lt;div&gt;«interface»&lt;/div&gt;&lt;div&gt;&lt;b&gt;Drawable&lt;/b&gt;&lt;br&gt;&lt;/div&gt;" style="html=1;" parent="1" vertex="1">
          <mxGeometry x="560" y="20" width="110" height="50" as="geometry" />
        </mxCell>
        <mxCell id="haPBkJ_DhKKpMTgAlbWv-82" value="Extends" style="endArrow=block;endSize=16;endFill=0;html=1;rounded=0;" parent="1" source="haPBkJ_DhKKpMTgAlbWv-61" target="haPBkJ_DhKKpMTgAlbWv-81" edge="1">
          <mxGeometry width="160" relative="1" as="geometry">
            <mxPoint x="340" y="220" as="sourcePoint" />
            <mxPoint x="500" y="220" as="targetPoint" />
          </mxGeometry>
        </mxCell>
      </root>
    </mxGraphModel>
  </diagram>
  <diagram id="Jr-SQvT9AGAxSSzq9nUg" name="Page-2">
    <mxGraphModel dx="942" dy="725" grid="1" gridSize="10" guides="1" tooltips="1" connect="1" arrows="1" fold="1" page="1" pageScale="1" pageWidth="850" pageHeight="1100" math="0" shadow="0">
      <root>
        <mxCell id="tzMp0XGSrnGTIV1PseK7-0" />
        <mxCell id="tzMp0XGSrnGTIV1PseK7-1" parent="tzMp0XGSrnGTIV1PseK7-0" />
        <mxCell id="tzMp0XGSrnGTIV1PseK7-2" value="&lt;h1&gt;Overview&lt;/h1&gt;&lt;div&gt;&lt;br&gt;&lt;/div&gt;&lt;div&gt;Hvilke typer er involvert? Hvordan forholder systemet seg til de objektene som tegnes på skjermen?&lt;br&gt;&lt;/div&gt;" style="text;html=1;strokeColor=none;fillColor=none;spacing=5;spacingTop=-20;whiteSpace=wrap;overflow=hidden;rounded=0;" vertex="1" parent="tzMp0XGSrnGTIV1PseK7-1">
          <mxGeometry x="90" y="80" width="190" height="120" as="geometry" />
        </mxCell>
        <mxCell id="tzMp0XGSrnGTIV1PseK7-3" value="&lt;div&gt;«interface&lt;b&gt;»&lt;/b&gt;&lt;/div&gt;&lt;div&gt;&lt;b&gt;PondObject&lt;br&gt;&lt;/b&gt;&lt;/div&gt;" style="html=1;" vertex="1" parent="tzMp0XGSrnGTIV1PseK7-1">
          <mxGeometry x="460" y="490" width="110" height="50" as="geometry" />
        </mxCell>
        <mxCell id="tzMp0XGSrnGTIV1PseK7-9" value="Extends" style="endArrow=block;endSize=16;endFill=0;html=1;rounded=0;" edge="1" parent="tzMp0XGSrnGTIV1PseK7-1" source="tzMp0XGSrnGTIV1PseK7-4" target="tzMp0XGSrnGTIV1PseK7-6">
          <mxGeometry width="160" relative="1" as="geometry">
            <mxPoint x="240" y="340" as="sourcePoint" />
            <mxPoint x="400" y="340" as="targetPoint" />
          </mxGeometry>
        </mxCell>
        <mxCell id="tzMp0XGSrnGTIV1PseK7-10" value="Extends" style="endArrow=block;endSize=16;endFill=0;html=1;rounded=0;" edge="1" parent="tzMp0XGSrnGTIV1PseK7-1" source="tzMp0XGSrnGTIV1PseK7-3" target="tzMp0XGSrnGTIV1PseK7-4">
          <mxGeometry width="160" relative="1" as="geometry">
            <mxPoint x="240" y="340" as="sourcePoint" />
            <mxPoint x="400" y="340" as="targetPoint" />
          </mxGeometry>
        </mxCell>
        <mxCell id="tzMp0XGSrnGTIV1PseK7-11" value="«interface»&#xa;Pond" style="swimlane;fontStyle=0;childLayout=stackLayout;horizontal=1;startSize=26;fillColor=none;horizontalStack=0;resizeParent=1;resizeParentMax=0;resizeLast=0;collapsible=1;marginBottom=0;" vertex="1" parent="tzMp0XGSrnGTIV1PseK7-1">
          <mxGeometry x="310" y="600" width="140" height="78" as="geometry">
            <mxRectangle x="410" y="450" width="90" height="30" as="alternateBounds" />
          </mxGeometry>
        </mxCell>
        <mxCell id="tzMp0XGSrnGTIV1PseK7-12" value="add(PondObject)" style="text;strokeColor=none;fillColor=none;align=left;verticalAlign=top;spacingLeft=4;spacingRight=4;overflow=hidden;rotatable=0;points=[[0,0.5],[1,0.5]];portConstraint=eastwest;" vertex="1" parent="tzMp0XGSrnGTIV1PseK7-11">
          <mxGeometry y="26" width="140" height="26" as="geometry" />
        </mxCell>
        <mxCell id="tzMp0XGSrnGTIV1PseK7-13" value="remove(PondObject)" style="text;strokeColor=none;fillColor=none;align=left;verticalAlign=top;spacingLeft=4;spacingRight=4;overflow=hidden;rotatable=0;points=[[0,0.5],[1,0.5]];portConstraint=eastwest;" vertex="1" parent="tzMp0XGSrnGTIV1PseK7-11">
          <mxGeometry y="52" width="140" height="26" as="geometry" />
        </mxCell>
        <mxCell id="tzMp0XGSrnGTIV1PseK7-15" value="Extends" style="endArrow=block;endSize=16;endFill=0;html=1;rounded=0;exitX=0.571;exitY=0.019;exitDx=0;exitDy=0;exitPerimeter=0;" edge="1" parent="tzMp0XGSrnGTIV1PseK7-1" source="tzMp0XGSrnGTIV1PseK7-11" target="tzMp0XGSrnGTIV1PseK7-4">
          <mxGeometry width="160" relative="1" as="geometry">
            <mxPoint x="240" y="340" as="sourcePoint" />
            <mxPoint x="400" y="340" as="targetPoint" />
          </mxGeometry>
        </mxCell>
        <mxCell id="tzMp0XGSrnGTIV1PseK7-17" value="Extends" style="endArrow=block;endSize=16;endFill=0;html=1;rounded=0;" edge="1" parent="tzMp0XGSrnGTIV1PseK7-1" source="tzMp0XGSrnGTIV1PseK7-6" target="tzMp0XGSrnGTIV1PseK7-16">
          <mxGeometry width="160" relative="1" as="geometry">
            <mxPoint x="240" y="340" as="sourcePoint" />
            <mxPoint x="400" y="340" as="targetPoint" />
          </mxGeometry>
        </mxCell>
        <mxCell id="tzMp0XGSrnGTIV1PseK7-18" value="1" style="endArrow=open;html=1;endSize=12;startArrow=diamondThin;startSize=14;startFill=1;edgeStyle=orthogonalEdgeStyle;align=left;verticalAlign=bottom;rounded=0;" edge="1" parent="tzMp0XGSrnGTIV1PseK7-1" source="tzMp0XGSrnGTIV1PseK7-11" target="tzMp0XGSrnGTIV1PseK7-3">
          <mxGeometry x="-1" y="3" relative="1" as="geometry">
            <mxPoint x="240" y="340" as="sourcePoint" />
            <mxPoint x="400" y="340" as="targetPoint" />
          </mxGeometry>
        </mxCell>
        <mxCell id="TPWh2itRMOosoCR1J4fw-3" value="0..n" style="edgeLabel;html=1;align=center;verticalAlign=middle;resizable=0;points=[];" vertex="1" connectable="0" parent="tzMp0XGSrnGTIV1PseK7-18">
          <mxGeometry x="0.8911" y="-3" relative="1" as="geometry">
            <mxPoint x="-18" as="offset" />
          </mxGeometry>
        </mxCell>
        <mxCell id="TPWh2itRMOosoCR1J4fw-1" value="" style="group" vertex="1" connectable="0" parent="tzMp0XGSrnGTIV1PseK7-1">
          <mxGeometry x="340" y="360" width="110" height="80" as="geometry" />
        </mxCell>
        <mxCell id="tzMp0XGSrnGTIV1PseK7-4" value="&lt;div&gt;«interface»&lt;b&gt;&lt;br&gt;&lt;/b&gt;&lt;/div&gt;&lt;div&gt;&lt;b&gt;Agent&lt;/b&gt;&lt;/div&gt;" style="html=1;verticalAlign=top;" vertex="1" parent="TPWh2itRMOosoCR1J4fw-1">
          <mxGeometry width="110" height="80" as="geometry" />
        </mxCell>
        <mxCell id="tzMp0XGSrnGTIV1PseK7-5" value="step()" style="text;strokeColor=none;fillColor=none;align=left;verticalAlign=top;spacingLeft=4;spacingRight=4;overflow=hidden;rotatable=0;points=[[0,0.5],[1,0.5]];portConstraint=eastwest;" vertex="1" parent="TPWh2itRMOosoCR1J4fw-1">
          <mxGeometry x="5" y="50" width="100" height="26" as="geometry" />
        </mxCell>
        <mxCell id="TPWh2itRMOosoCR1J4fw-2" value="" style="group" vertex="1" connectable="0" parent="tzMp0XGSrnGTIV1PseK7-1">
          <mxGeometry x="500" y="190" width="110" height="80" as="geometry" />
        </mxCell>
        <mxCell id="tzMp0XGSrnGTIV1PseK7-6" value="&lt;div&gt;«interface»&lt;/div&gt;&lt;div&gt;&lt;b&gt;Entity&lt;/b&gt;&lt;br&gt;&lt;/div&gt;" style="html=1;verticalAlign=top;" vertex="1" parent="TPWh2itRMOosoCR1J4fw-2">
          <mxGeometry width="110" height="80" as="geometry" />
        </mxCell>
        <mxCell id="tzMp0XGSrnGTIV1PseK7-7" value="draw()" style="text;strokeColor=none;fillColor=none;align=left;verticalAlign=top;spacingLeft=4;spacingRight=4;overflow=hidden;rotatable=0;points=[[0,0.5],[1,0.5]];portConstraint=eastwest;" vertex="1" parent="TPWh2itRMOosoCR1J4fw-2">
          <mxGeometry x="5" y="42.28571428571429" width="100" height="14.85714285714286" as="geometry" />
        </mxCell>
        <mxCell id="tzMp0XGSrnGTIV1PseK7-8" value="getPosition()" style="text;strokeColor=none;fillColor=none;align=left;verticalAlign=top;spacingLeft=4;spacingRight=4;overflow=hidden;rotatable=0;points=[[0,0.5],[1,0.5]];portConstraint=eastwest;" vertex="1" parent="TPWh2itRMOosoCR1J4fw-2">
          <mxGeometry x="5" y="57.142857142857146" width="100" height="14.85714285714286" as="geometry" />
        </mxCell>
        <mxCell id="TPWh2itRMOosoCR1J4fw-6" value="" style="group" vertex="1" connectable="0" parent="tzMp0XGSrnGTIV1PseK7-1">
          <mxGeometry x="560" y="20" width="110" height="100" as="geometry" />
        </mxCell>
        <mxCell id="tzMp0XGSrnGTIV1PseK7-16" value="&lt;div&gt;«interface&lt;b&gt;»&lt;/b&gt;&lt;/div&gt;&lt;div&gt;&lt;b&gt;Comparable&amp;lt;Entity&amp;gt;&lt;br&gt;&lt;/b&gt;&lt;/div&gt;" style="html=1;verticalAlign=top;" vertex="1" parent="TPWh2itRMOosoCR1J4fw-6">
          <mxGeometry width="110" height="100" as="geometry" />
        </mxCell>
        <mxCell id="TPWh2itRMOosoCR1J4fw-5" value="compareTo() : int" style="text;strokeColor=none;fillColor=none;align=left;verticalAlign=top;spacingLeft=4;spacingRight=4;overflow=hidden;rotatable=0;points=[[0,0.5],[1,0.5]];portConstraint=eastwest;" vertex="1" parent="TPWh2itRMOosoCR1J4fw-6">
          <mxGeometry x="5" y="50" width="100" height="26" as="geometry" />
        </mxCell>
        <mxCell id="TPWh2itRMOosoCR1J4fw-8" value="Game" style="swimlane;fontStyle=0;childLayout=stackLayout;horizontal=1;startSize=26;fillColor=none;horizontalStack=0;resizeParent=1;resizeParentMax=0;resizeLast=0;collapsible=1;marginBottom=0;" vertex="1" parent="tzMp0XGSrnGTIV1PseK7-1">
          <mxGeometry x="90" y="460" width="140" height="104" as="geometry" />
        </mxCell>
        <mxCell id="TPWh2itRMOosoCR1J4fw-9" value="+ field: type" style="text;strokeColor=none;fillColor=none;align=left;verticalAlign=top;spacingLeft=4;spacingRight=4;overflow=hidden;rotatable=0;points=[[0,0.5],[1,0.5]];portConstraint=eastwest;" vertex="1" parent="TPWh2itRMOosoCR1J4fw-8">
          <mxGeometry y="26" width="140" height="26" as="geometry" />
        </mxCell>
        <mxCell id="TPWh2itRMOosoCR1J4fw-10" value="+ field: type" style="text;strokeColor=none;fillColor=none;align=left;verticalAlign=top;spacingLeft=4;spacingRight=4;overflow=hidden;rotatable=0;points=[[0,0.5],[1,0.5]];portConstraint=eastwest;" vertex="1" parent="TPWh2itRMOosoCR1J4fw-8">
          <mxGeometry y="52" width="140" height="26" as="geometry" />
        </mxCell>
        <mxCell id="TPWh2itRMOosoCR1J4fw-11" value="+ field: type" style="text;strokeColor=none;fillColor=none;align=left;verticalAlign=top;spacingLeft=4;spacingRight=4;overflow=hidden;rotatable=0;points=[[0,0.5],[1,0.5]];portConstraint=eastwest;" vertex="1" parent="TPWh2itRMOosoCR1J4fw-8">
          <mxGeometry y="78" width="140" height="26" as="geometry" />
        </mxCell>
        <mxCell id="TPWh2itRMOosoCR1J4fw-12" value="GameMap" style="swimlane;fontStyle=1;align=center;verticalAlign=top;childLayout=stackLayout;horizontal=1;startSize=26;horizontalStack=0;resizeParent=1;resizeParentMax=0;resizeLast=0;collapsible=1;marginBottom=0;" vertex="1" parent="tzMp0XGSrnGTIV1PseK7-1">
          <mxGeometry x="105" y="244" width="160" height="86" as="geometry" />
        </mxCell>
        <mxCell id="TPWh2itRMOosoCR1J4fw-13" value="+ entities : List&lt;Entity&gt;" style="text;strokeColor=none;fillColor=none;align=left;verticalAlign=top;spacingLeft=4;spacingRight=4;overflow=hidden;rotatable=0;points=[[0,0.5],[1,0.5]];portConstraint=eastwest;" vertex="1" parent="TPWh2itRMOosoCR1J4fw-12">
          <mxGeometry y="26" width="160" height="26" as="geometry" />
        </mxCell>
        <mxCell id="TPWh2itRMOosoCR1J4fw-14" value="" style="line;strokeWidth=1;fillColor=none;align=left;verticalAlign=middle;spacingTop=-1;spacingLeft=3;spacingRight=3;rotatable=0;labelPosition=right;points=[];portConstraint=eastwest;" vertex="1" parent="TPWh2itRMOosoCR1J4fw-12">
          <mxGeometry y="52" width="160" height="8" as="geometry" />
        </mxCell>
        <mxCell id="TPWh2itRMOosoCR1J4fw-15" value="+ method(type): type" style="text;strokeColor=none;fillColor=none;align=left;verticalAlign=top;spacingLeft=4;spacingRight=4;overflow=hidden;rotatable=0;points=[[0,0.5],[1,0.5]];portConstraint=eastwest;" vertex="1" parent="TPWh2itRMOosoCR1J4fw-12">
          <mxGeometry y="60" width="160" height="26" as="geometry" />
        </mxCell>
        <mxCell id="TPWh2itRMOosoCR1J4fw-16" value="1" style="endArrow=open;html=1;endSize=12;startArrow=diamondThin;startSize=14;startFill=0;edgeStyle=orthogonalEdgeStyle;align=left;verticalAlign=bottom;rounded=0;" edge="1" parent="tzMp0XGSrnGTIV1PseK7-1" source="TPWh2itRMOosoCR1J4fw-8" target="TPWh2itRMOosoCR1J4fw-12">
          <mxGeometry x="-0.9208" y="20" relative="1" as="geometry">
            <mxPoint x="240" y="340" as="sourcePoint" />
            <mxPoint x="400" y="340" as="targetPoint" />
            <Array as="points">
              <mxPoint x="140" y="467" />
              <mxPoint x="280" y="467" />
            </Array>
            <mxPoint as="offset" />
          </mxGeometry>
        </mxCell>
        <mxCell id="TPWh2itRMOosoCR1J4fw-17" value="1" style="edgeLabel;html=1;align=center;verticalAlign=middle;resizable=0;points=[];" vertex="1" connectable="0" parent="TPWh2itRMOosoCR1J4fw-16">
          <mxGeometry x="0.6792" y="1" relative="1" as="geometry">
            <mxPoint x="-7" y="-16" as="offset" />
          </mxGeometry>
        </mxCell>
        <mxCell id="TPWh2itRMOosoCR1J4fw-18" value="Relation" style="endArrow=open;html=1;endSize=12;startArrow=diamondThin;startSize=14;startFill=0;edgeStyle=orthogonalEdgeStyle;rounded=0;" edge="1" parent="tzMp0XGSrnGTIV1PseK7-1" source="TPWh2itRMOosoCR1J4fw-12" target="tzMp0XGSrnGTIV1PseK7-4">
          <mxGeometry relative="1" as="geometry">
            <mxPoint x="240" y="320" as="sourcePoint" />
            <mxPoint x="400" y="320" as="targetPoint" />
          </mxGeometry>
        </mxCell>
        <mxCell id="TPWh2itRMOosoCR1J4fw-19" value="1" style="edgeLabel;resizable=0;html=1;align=left;verticalAlign=top;" connectable="0" vertex="1" parent="TPWh2itRMOosoCR1J4fw-18">
          <mxGeometry x="-1" relative="1" as="geometry" />
        </mxCell>
        <mxCell id="TPWh2itRMOosoCR1J4fw-20" value="0..n" style="edgeLabel;resizable=0;html=1;align=right;verticalAlign=top;" connectable="0" vertex="1" parent="TPWh2itRMOosoCR1J4fw-18">
          <mxGeometry x="1" relative="1" as="geometry" />
        </mxCell>
        <mxCell id="TPWh2itRMOosoCR1J4fw-22" value="Relation" style="endArrow=open;html=1;endSize=12;startArrow=diamondThin;startSize=14;startFill=0;edgeStyle=orthogonalEdgeStyle;rounded=0;" edge="1" parent="tzMp0XGSrnGTIV1PseK7-1" source="TPWh2itRMOosoCR1J4fw-12" target="tzMp0XGSrnGTIV1PseK7-6">
          <mxGeometry relative="1" as="geometry">
            <mxPoint x="240" y="320" as="sourcePoint" />
            <mxPoint x="400" y="320" as="targetPoint" />
            <Array as="points">
              <mxPoint x="320" y="250" />
              <mxPoint x="320" y="150" />
              <mxPoint x="555" y="150" />
            </Array>
          </mxGeometry>
        </mxCell>
        <mxCell id="TPWh2itRMOosoCR1J4fw-23" value="q" style="edgeLabel;resizable=0;html=1;align=left;verticalAlign=top;" connectable="0" vertex="1" parent="TPWh2itRMOosoCR1J4fw-22">
          <mxGeometry x="-1" relative="1" as="geometry" />
        </mxCell>
        <mxCell id="TPWh2itRMOosoCR1J4fw-24" value="0..n" style="edgeLabel;resizable=0;html=1;align=right;verticalAlign=top;" connectable="0" vertex="1" parent="TPWh2itRMOosoCR1J4fw-22">
          <mxGeometry x="1" relative="1" as="geometry" />
        </mxCell>
        <mxCell id="TPWh2itRMOosoCR1J4fw-25" value="&lt;div&gt;«interface»&lt;/div&gt;&lt;div&gt;Iterable&lt;/div&gt;" style="html=1;" vertex="1" parent="tzMp0XGSrnGTIV1PseK7-1">
          <mxGeometry x="720" y="50" width="140" height="50" as="geometry" />
        </mxCell>
        <mxCell id="TPWh2itRMOosoCR1J4fw-26" value="Extends" style="endArrow=block;endSize=16;endFill=0;html=1;rounded=0;" edge="1" parent="tzMp0XGSrnGTIV1PseK7-1" source="tzMp0XGSrnGTIV1PseK7-11" target="TPWh2itRMOosoCR1J4fw-27">
          <mxGeometry width="160" relative="1" as="geometry">
            <mxPoint x="240" y="320" as="sourcePoint" />
            <mxPoint x="400" y="320" as="targetPoint" />
            <Array as="points">
              <mxPoint x="590" y="640" />
            </Array>
          </mxGeometry>
        </mxCell>
        <mxCell id="TPWh2itRMOosoCR1J4fw-27" value="&lt;div&gt;«interface»&lt;/div&gt;&lt;div&gt;&lt;b&gt;Container&lt;/b&gt;&lt;br&gt;&lt;/div&gt;" style="html=1;" vertex="1" parent="tzMp0XGSrnGTIV1PseK7-1">
          <mxGeometry x="640" y="400" width="110" height="50" as="geometry" />
        </mxCell>
        <mxCell id="TPWh2itRMOosoCR1J4fw-28" value="Extends" style="endArrow=block;endSize=16;endFill=0;html=1;rounded=0;" edge="1" parent="tzMp0XGSrnGTIV1PseK7-1" source="TPWh2itRMOosoCR1J4fw-27" target="TPWh2itRMOosoCR1J4fw-25">
          <mxGeometry width="160" relative="1" as="geometry">
            <mxPoint x="240" y="320" as="sourcePoint" />
            <mxPoint x="400" y="320" as="targetPoint" />
          </mxGeometry>
        </mxCell>
        <mxCell id="TPWh2itRMOosoCR1J4fw-29" value="Extends" style="endArrow=block;endSize=16;endFill=0;html=1;rounded=0;" edge="1" parent="tzMp0XGSrnGTIV1PseK7-1" source="TPWh2itRMOosoCR1J4fw-27" target="tzMp0XGSrnGTIV1PseK7-6">
          <mxGeometry width="160" relative="1" as="geometry">
            <mxPoint x="340" y="340" as="sourcePoint" />
            <mxPoint x="500" y="340" as="targetPoint" />
          </mxGeometry>
        </mxCell>
      </root>
    </mxGraphModel>
  </diagram>
  <diagram id="xWUh9N5Bia-_sVqHikNV" name="Page-3">
    <mxGraphModel dx="1422" dy="883" grid="1" gridSize="10" guides="1" tooltips="1" connect="1" arrows="1" fold="1" page="1" pageScale="1" pageWidth="827" pageHeight="1169" math="0" shadow="0">
      <root>
        <mxCell id="iDOIqDoAi-SRFrKVg-2q-0" />
        <mxCell id="iDOIqDoAi-SRFrKVg-2q-1" parent="iDOIqDoAi-SRFrKVg-2q-0" />
        <mxCell id="iDOIqDoAi-SRFrKVg-2q-63" value="Duck" style="shape=umlLifeline;perimeter=lifelinePerimeter;whiteSpace=wrap;html=1;container=1;collapsible=0;recursiveResize=0;outlineConnect=0;" vertex="1" parent="iDOIqDoAi-SRFrKVg-2q-1">
          <mxGeometry x="650" y="300" width="100" height="750" as="geometry" />
        </mxCell>
        <mxCell id="iDOIqDoAi-SRFrKVg-2q-67" value="" style="html=1;points=[];perimeter=orthogonalPerimeter;shadow=1;" vertex="1" parent="iDOIqDoAi-SRFrKVg-2q-63">
          <mxGeometry x="70" y="470" width="10" height="40" as="geometry" />
        </mxCell>
        <mxCell id="iDOIqDoAi-SRFrKVg-2q-62" value="OpenGL" style="shape=umlLifeline;perimeter=lifelinePerimeter;whiteSpace=wrap;html=1;container=1;collapsible=0;recursiveResize=0;outlineConnect=0;shadow=1;" vertex="1" parent="iDOIqDoAi-SRFrKVg-2q-1">
          <mxGeometry x="805" y="710" width="100" height="300" as="geometry" />
        </mxCell>
        <mxCell id="iDOIqDoAi-SRFrKVg-2q-48" value="GDX" style="shape=umlLifeline;perimeter=lifelinePerimeter;whiteSpace=wrap;html=1;container=1;collapsible=0;recursiveResize=0;outlineConnect=0;" vertex="1" parent="iDOIqDoAi-SRFrKVg-2q-1">
          <mxGeometry x="725" y="80" width="100" height="300" as="geometry" />
        </mxCell>
        <mxCell id="iDOIqDoAi-SRFrKVg-2q-34" value="player : PlayerObject" style="shape=umlLifeline;perimeter=lifelinePerimeter;whiteSpace=wrap;html=1;container=1;collapsible=0;recursiveResize=0;outlineConnect=0;" vertex="1" parent="iDOIqDoAi-SRFrKVg-2q-1">
          <mxGeometry x="595" y="80" width="100" height="630" as="geometry" />
        </mxCell>
        <mxCell id="iDOIqDoAi-SRFrKVg-2q-31" value="" style="html=1;points=[];perimeter=orthogonalPerimeter;" vertex="1" parent="iDOIqDoAi-SRFrKVg-2q-34">
          <mxGeometry x="45" y="435" width="10" height="45" as="geometry" />
        </mxCell>
        <mxCell id="iDOIqDoAi-SRFrKVg-2q-17" value=":GDX" style="shape=umlLifeline;perimeter=lifelinePerimeter;whiteSpace=wrap;html=1;container=1;collapsible=0;recursiveResize=0;outlineConnect=0;" vertex="1" parent="iDOIqDoAi-SRFrKVg-2q-1">
          <mxGeometry x="345" y="80" width="100" height="780" as="geometry" />
        </mxCell>
        <mxCell id="iDOIqDoAi-SRFrKVg-2q-2" value=":GDXApp" style="shape=umlLifeline;perimeter=lifelinePerimeter;whiteSpace=wrap;html=1;container=1;collapsible=0;recursiveResize=0;outlineConnect=0;" vertex="1" parent="iDOIqDoAi-SRFrKVg-2q-1">
          <mxGeometry x="225" y="80" width="100" height="290" as="geometry" />
        </mxCell>
        <mxCell id="iDOIqDoAi-SRFrKVg-2q-4" value="main" style="shape=umlLifeline;perimeter=lifelinePerimeter;whiteSpace=wrap;html=1;container=1;collapsible=0;recursiveResize=0;outlineConnect=0;" vertex="1" parent="iDOIqDoAi-SRFrKVg-2q-1">
          <mxGeometry x="110" y="80" width="100" height="550" as="geometry" />
        </mxCell>
        <mxCell id="iDOIqDoAi-SRFrKVg-2q-8" value="" style="html=1;points=[];perimeter=orthogonalPerimeter;" vertex="1" parent="iDOIqDoAi-SRFrKVg-2q-4">
          <mxGeometry x="45" y="80" width="10" height="250" as="geometry" />
        </mxCell>
        <mxCell id="iDOIqDoAi-SRFrKVg-2q-5" value="" style="html=1;points=[];perimeter=orthogonalPerimeter;" vertex="1" parent="iDOIqDoAi-SRFrKVg-2q-1">
          <mxGeometry x="270" y="180" width="10" height="220" as="geometry" />
        </mxCell>
        <mxCell id="iDOIqDoAi-SRFrKVg-2q-6" value="start()" style="html=1;verticalAlign=bottom;endArrow=block;entryX=0;entryY=0;rounded=0;" edge="1" target="iDOIqDoAi-SRFrKVg-2q-5" parent="iDOIqDoAi-SRFrKVg-2q-1" source="iDOIqDoAi-SRFrKVg-2q-8">
          <mxGeometry relative="1" as="geometry">
            <mxPoint x="170" y="180" as="sourcePoint" />
            <Array as="points">
              <mxPoint x="200" y="180" />
            </Array>
          </mxGeometry>
        </mxCell>
        <mxCell id="iDOIqDoAi-SRFrKVg-2q-7" value="return" style="html=1;verticalAlign=bottom;endArrow=open;dashed=1;endSize=8;exitX=0;exitY=0.95;rounded=0;" edge="1" source="iDOIqDoAi-SRFrKVg-2q-5" parent="iDOIqDoAi-SRFrKVg-2q-1" target="iDOIqDoAi-SRFrKVg-2q-8">
          <mxGeometry relative="1" as="geometry">
            <mxPoint x="180" y="266" as="targetPoint" />
          </mxGeometry>
        </mxCell>
        <mxCell id="iDOIqDoAi-SRFrKVg-2q-9" value="main()" style="html=1;verticalAlign=bottom;startArrow=oval;startFill=1;endArrow=block;startSize=8;rounded=0;" edge="1" parent="iDOIqDoAi-SRFrKVg-2q-1">
          <mxGeometry width="60" relative="1" as="geometry">
            <mxPoint x="80" y="170" as="sourcePoint" />
            <mxPoint x="160" y="170" as="targetPoint" />
            <Array as="points">
              <mxPoint x="100" y="180" />
            </Array>
          </mxGeometry>
        </mxCell>
        <mxCell id="iDOIqDoAi-SRFrKVg-2q-10" value="" style="html=1;points=[];perimeter=orthogonalPerimeter;" vertex="1" parent="iDOIqDoAi-SRFrKVg-2q-1">
          <mxGeometry x="390" y="180" width="10" height="30" as="geometry" />
        </mxCell>
        <mxCell id="iDOIqDoAi-SRFrKVg-2q-11" value="createWindow()" style="html=1;verticalAlign=bottom;endArrow=block;entryX=0;entryY=0;rounded=0;" edge="1" target="iDOIqDoAi-SRFrKVg-2q-10" parent="iDOIqDoAi-SRFrKVg-2q-1" source="iDOIqDoAi-SRFrKVg-2q-5">
          <mxGeometry relative="1" as="geometry">
            <mxPoint x="280" y="200" as="sourcePoint" />
          </mxGeometry>
        </mxCell>
        <mxCell id="iDOIqDoAi-SRFrKVg-2q-12" value="return" style="html=1;verticalAlign=bottom;endArrow=open;dashed=1;endSize=8;rounded=0;" edge="1" parent="iDOIqDoAi-SRFrKVg-2q-1" target="iDOIqDoAi-SRFrKVg-2q-5">
          <mxGeometry relative="1" as="geometry">
            <mxPoint x="280" y="276" as="targetPoint" />
            <mxPoint x="395" y="200" as="sourcePoint" />
            <Array as="points">
              <mxPoint x="310" y="200" />
            </Array>
          </mxGeometry>
        </mxCell>
        <mxCell id="iDOIqDoAi-SRFrKVg-2q-13" value="" style="html=1;points=[];perimeter=orthogonalPerimeter;" vertex="1" parent="iDOIqDoAi-SRFrKVg-2q-1">
          <mxGeometry x="390" y="220" width="10" height="40" as="geometry" />
        </mxCell>
        <mxCell id="iDOIqDoAi-SRFrKVg-2q-14" value="addKeyListener" style="html=1;verticalAlign=bottom;endArrow=block;rounded=0;" edge="1" target="iDOIqDoAi-SRFrKVg-2q-13" parent="iDOIqDoAi-SRFrKVg-2q-1">
          <mxGeometry relative="1" as="geometry">
            <mxPoint x="280" y="220" as="sourcePoint" />
            <mxPoint x="389" y="300" as="targetPoint" />
          </mxGeometry>
        </mxCell>
        <mxCell id="iDOIqDoAi-SRFrKVg-2q-15" value="return" style="html=1;verticalAlign=bottom;endArrow=open;dashed=1;endSize=8;exitX=0.1;exitY=0.925;rounded=0;exitDx=0;exitDy=0;exitPerimeter=0;" edge="1" source="iDOIqDoAi-SRFrKVg-2q-13" parent="iDOIqDoAi-SRFrKVg-2q-1" target="iDOIqDoAi-SRFrKVg-2q-5">
          <mxGeometry relative="1" as="geometry">
            <mxPoint x="310" y="406" as="targetPoint" />
          </mxGeometry>
        </mxCell>
        <mxCell id="iDOIqDoAi-SRFrKVg-2q-18" value="" style="html=1;points=[];perimeter=orthogonalPerimeter;" vertex="1" parent="iDOIqDoAi-SRFrKVg-2q-1">
          <mxGeometry x="390" y="280" width="10" height="40" as="geometry" />
        </mxCell>
        <mxCell id="iDOIqDoAi-SRFrKVg-2q-19" value="addTimer" style="html=1;verticalAlign=bottom;endArrow=block;entryX=0;entryY=0;rounded=0;" edge="1" target="iDOIqDoAi-SRFrKVg-2q-18" parent="iDOIqDoAi-SRFrKVg-2q-1" source="iDOIqDoAi-SRFrKVg-2q-5">
          <mxGeometry relative="1" as="geometry">
            <mxPoint x="310" y="330" as="sourcePoint" />
          </mxGeometry>
        </mxCell>
        <mxCell id="iDOIqDoAi-SRFrKVg-2q-20" value="return" style="html=1;verticalAlign=bottom;endArrow=open;dashed=1;endSize=8;exitX=0;exitY=0.95;rounded=0;" edge="1" source="iDOIqDoAi-SRFrKVg-2q-18" parent="iDOIqDoAi-SRFrKVg-2q-1" target="iDOIqDoAi-SRFrKVg-2q-5">
          <mxGeometry relative="1" as="geometry">
            <mxPoint x="310" y="406" as="targetPoint" />
          </mxGeometry>
        </mxCell>
        <mxCell id="iDOIqDoAi-SRFrKVg-2q-21" value="" style="html=1;points=[];perimeter=orthogonalPerimeter;" vertex="1" parent="iDOIqDoAi-SRFrKVg-2q-1">
          <mxGeometry x="510" y="360" width="10" height="40" as="geometry" />
        </mxCell>
        <mxCell id="iDOIqDoAi-SRFrKVg-2q-22" value="&lt;div&gt;initGame()&lt;/div&gt;" style="html=1;verticalAlign=bottom;endArrow=block;entryX=0;entryY=0;rounded=0;" edge="1" target="iDOIqDoAi-SRFrKVg-2q-21" parent="iDOIqDoAi-SRFrKVg-2q-1">
          <mxGeometry relative="1" as="geometry">
            <mxPoint x="280" y="360" as="sourcePoint" />
          </mxGeometry>
        </mxCell>
        <mxCell id="iDOIqDoAi-SRFrKVg-2q-23" value="return" style="html=1;verticalAlign=bottom;endArrow=open;dashed=1;endSize=8;exitX=0;exitY=0.95;rounded=0;" edge="1" source="iDOIqDoAi-SRFrKVg-2q-21" parent="iDOIqDoAi-SRFrKVg-2q-1" target="iDOIqDoAi-SRFrKVg-2q-5">
          <mxGeometry relative="1" as="geometry">
            <mxPoint x="280" y="436" as="targetPoint" />
          </mxGeometry>
        </mxCell>
        <mxCell id="iDOIqDoAi-SRFrKVg-2q-24" value=":GameController" style="shape=umlLifeline;perimeter=lifelinePerimeter;whiteSpace=wrap;html=1;container=1;collapsible=0;recursiveResize=0;outlineConnect=0;" vertex="1" parent="iDOIqDoAi-SRFrKVg-2q-1">
          <mxGeometry x="470" y="80" width="100" height="860" as="geometry" />
        </mxCell>
        <mxCell id="iDOIqDoAi-SRFrKVg-2q-39" value="" style="html=1;points=[];perimeter=orthogonalPerimeter;" vertex="1" parent="iDOIqDoAi-SRFrKVg-2q-24">
          <mxGeometry x="45" y="580" width="10" height="280" as="geometry" />
        </mxCell>
        <mxCell id="iDOIqDoAi-SRFrKVg-2q-25" value="" style="html=1;points=[];perimeter=orthogonalPerimeter;" vertex="1" parent="iDOIqDoAi-SRFrKVg-2q-1">
          <mxGeometry x="270" y="470" width="10" height="130" as="geometry" />
        </mxCell>
        <mxCell id="iDOIqDoAi-SRFrKVg-2q-26" value="keyDown" style="html=1;verticalAlign=bottom;endArrow=block;entryX=1;entryY=0;rounded=0;" edge="1" target="iDOIqDoAi-SRFrKVg-2q-25" parent="iDOIqDoAi-SRFrKVg-2q-1" source="iDOIqDoAi-SRFrKVg-2q-38">
          <mxGeometry relative="1" as="geometry">
            <mxPoint x="400" y="470" as="sourcePoint" />
          </mxGeometry>
        </mxCell>
        <mxCell id="iDOIqDoAi-SRFrKVg-2q-27" value="return" style="html=1;verticalAlign=bottom;endArrow=open;dashed=1;endSize=8;exitX=1;exitY=0.95;rounded=0;" edge="1" source="iDOIqDoAi-SRFrKVg-2q-25" parent="iDOIqDoAi-SRFrKVg-2q-1" target="iDOIqDoAi-SRFrKVg-2q-38">
          <mxGeometry relative="1" as="geometry">
            <mxPoint x="420" y="590" as="targetPoint" />
          </mxGeometry>
        </mxCell>
        <mxCell id="iDOIqDoAi-SRFrKVg-2q-28" value="" style="html=1;points=[];perimeter=orthogonalPerimeter;" vertex="1" parent="iDOIqDoAi-SRFrKVg-2q-1">
          <mxGeometry x="515" y="510" width="10" height="50" as="geometry" />
        </mxCell>
        <mxCell id="iDOIqDoAi-SRFrKVg-2q-29" value="userPressedDirectionKey()" style="html=1;verticalAlign=bottom;endArrow=block;entryX=0;entryY=0;rounded=0;" edge="1" target="iDOIqDoAi-SRFrKVg-2q-28" parent="iDOIqDoAi-SRFrKVg-2q-1" source="iDOIqDoAi-SRFrKVg-2q-25">
          <mxGeometry relative="1" as="geometry">
            <mxPoint x="385" y="480" as="sourcePoint" />
          </mxGeometry>
        </mxCell>
        <mxCell id="iDOIqDoAi-SRFrKVg-2q-30" value="return" style="html=1;verticalAlign=bottom;endArrow=open;dashed=1;endSize=8;exitX=0;exitY=0.95;rounded=0;" edge="1" source="iDOIqDoAi-SRFrKVg-2q-28" parent="iDOIqDoAi-SRFrKVg-2q-1" target="iDOIqDoAi-SRFrKVg-2q-25">
          <mxGeometry relative="1" as="geometry">
            <mxPoint x="385" y="556" as="targetPoint" />
          </mxGeometry>
        </mxCell>
        <mxCell id="iDOIqDoAi-SRFrKVg-2q-32" value="adjustDirection()" style="html=1;verticalAlign=bottom;endArrow=block;entryX=0;entryY=0;rounded=0;" edge="1" target="iDOIqDoAi-SRFrKVg-2q-31" parent="iDOIqDoAi-SRFrKVg-2q-1" source="iDOIqDoAi-SRFrKVg-2q-28">
          <mxGeometry relative="1" as="geometry">
            <mxPoint x="600" y="500" as="sourcePoint" />
          </mxGeometry>
        </mxCell>
        <mxCell id="iDOIqDoAi-SRFrKVg-2q-33" value="return" style="html=1;verticalAlign=bottom;endArrow=open;dashed=1;endSize=8;exitX=0;exitY=0.95;rounded=0;entryX=1;entryY=0.967;entryDx=0;entryDy=0;entryPerimeter=0;" edge="1" source="iDOIqDoAi-SRFrKVg-2q-31" parent="iDOIqDoAi-SRFrKVg-2q-1" target="iDOIqDoAi-SRFrKVg-2q-28">
          <mxGeometry relative="1" as="geometry">
            <mxPoint x="600" y="576" as="targetPoint" />
          </mxGeometry>
        </mxCell>
        <mxCell id="iDOIqDoAi-SRFrKVg-2q-35" value="" style="html=1;points=[];perimeter=orthogonalPerimeter;" vertex="1" parent="iDOIqDoAi-SRFrKVg-2q-1">
          <mxGeometry x="270" y="640" width="10" height="320" as="geometry" />
        </mxCell>
        <mxCell id="iDOIqDoAi-SRFrKVg-2q-36" value="timeStep()" style="html=1;verticalAlign=bottom;endArrow=block;entryX=1;entryY=0;rounded=0;" edge="1" target="iDOIqDoAi-SRFrKVg-2q-35" parent="iDOIqDoAi-SRFrKVg-2q-1" source="iDOIqDoAi-SRFrKVg-2q-38">
          <mxGeometry relative="1" as="geometry">
            <mxPoint x="340" y="640" as="sourcePoint" />
          </mxGeometry>
        </mxCell>
        <mxCell id="iDOIqDoAi-SRFrKVg-2q-37" value="return" style="html=1;verticalAlign=bottom;endArrow=open;dashed=1;endSize=8;rounded=0;" edge="1" parent="iDOIqDoAi-SRFrKVg-2q-1">
          <mxGeometry relative="1" as="geometry">
            <mxPoint x="770" y="956" as="targetPoint" />
            <mxPoint x="280" y="956" as="sourcePoint" />
            <Array as="points">
              <mxPoint x="350" y="956" />
            </Array>
          </mxGeometry>
        </mxCell>
        <mxCell id="iDOIqDoAi-SRFrKVg-2q-40" value="step()" style="html=1;verticalAlign=bottom;endArrow=block;entryX=0;entryY=0;rounded=0;" edge="1" target="iDOIqDoAi-SRFrKVg-2q-39" parent="iDOIqDoAi-SRFrKVg-2q-1" source="iDOIqDoAi-SRFrKVg-2q-35">
          <mxGeometry relative="1" as="geometry">
            <mxPoint x="445" y="660" as="sourcePoint" />
          </mxGeometry>
        </mxCell>
        <mxCell id="iDOIqDoAi-SRFrKVg-2q-41" value="return" style="html=1;verticalAlign=bottom;endArrow=open;dashed=1;endSize=8;exitX=0;exitY=0.95;rounded=0;" edge="1" source="iDOIqDoAi-SRFrKVg-2q-39" parent="iDOIqDoAi-SRFrKVg-2q-1" target="iDOIqDoAi-SRFrKVg-2q-35">
          <mxGeometry relative="1" as="geometry">
            <mxPoint x="445" y="736" as="targetPoint" />
          </mxGeometry>
        </mxCell>
        <mxCell id="iDOIqDoAi-SRFrKVg-2q-42" value="" style="html=1;points=[];perimeter=orthogonalPerimeter;" vertex="1" parent="iDOIqDoAi-SRFrKVg-2q-1">
          <mxGeometry x="640" y="670" width="10" height="40" as="geometry" />
        </mxCell>
        <mxCell id="iDOIqDoAi-SRFrKVg-2q-43" value="step()" style="html=1;verticalAlign=bottom;endArrow=block;entryX=0;entryY=0;rounded=0;" edge="1" target="iDOIqDoAi-SRFrKVg-2q-42" parent="iDOIqDoAi-SRFrKVg-2q-1">
          <mxGeometry relative="1" as="geometry">
            <mxPoint x="520" y="670" as="sourcePoint" />
          </mxGeometry>
        </mxCell>
        <mxCell id="iDOIqDoAi-SRFrKVg-2q-44" value="return" style="html=1;verticalAlign=bottom;endArrow=open;dashed=1;endSize=8;exitX=0;exitY=0.95;rounded=0;" edge="1" source="iDOIqDoAi-SRFrKVg-2q-42" parent="iDOIqDoAi-SRFrKVg-2q-1" target="iDOIqDoAi-SRFrKVg-2q-39">
          <mxGeometry relative="1" as="geometry">
            <mxPoint x="520" y="746" as="targetPoint" />
          </mxGeometry>
        </mxCell>
        <mxCell id="iDOIqDoAi-SRFrKVg-2q-45" value="" style="html=1;points=[];perimeter=orthogonalPerimeter;" vertex="1" parent="iDOIqDoAi-SRFrKVg-2q-1">
          <mxGeometry x="695" y="750" width="10" height="70" as="geometry" />
        </mxCell>
        <mxCell id="iDOIqDoAi-SRFrKVg-2q-46" value="&lt;div&gt;step()&lt;/div&gt;&lt;div&gt;&lt;br&gt;&lt;/div&gt;" style="html=1;verticalAlign=bottom;endArrow=block;entryX=0;entryY=0;rounded=0;" edge="1" target="iDOIqDoAi-SRFrKVg-2q-45" parent="iDOIqDoAi-SRFrKVg-2q-1">
          <mxGeometry relative="1" as="geometry">
            <mxPoint x="520" y="750" as="sourcePoint" />
            <Array as="points">
              <mxPoint x="520" y="750" />
            </Array>
          </mxGeometry>
        </mxCell>
        <mxCell id="iDOIqDoAi-SRFrKVg-2q-47" value="return" style="html=1;verticalAlign=bottom;endArrow=open;dashed=1;endSize=8;exitX=0;exitY=0.95;rounded=0;" edge="1" source="iDOIqDoAi-SRFrKVg-2q-45" parent="iDOIqDoAi-SRFrKVg-2q-1" target="iDOIqDoAi-SRFrKVg-2q-24">
          <mxGeometry relative="1" as="geometry">
            <mxPoint x="310" y="526" as="targetPoint" />
          </mxGeometry>
        </mxCell>
        <mxCell id="iDOIqDoAi-SRFrKVg-2q-38" value="" style="html=1;points=[];perimeter=orthogonalPerimeter;" vertex="1" parent="iDOIqDoAi-SRFrKVg-2q-1">
          <mxGeometry x="770" y="180" width="10" height="990" as="geometry" />
        </mxCell>
        <mxCell id="iDOIqDoAi-SRFrKVg-2q-52" value="&lt;div&gt;drawBackground()&lt;/div&gt;" style="html=1;verticalAlign=bottom;startArrow=oval;startFill=1;endArrow=block;startSize=8;rounded=0;" edge="1" parent="iDOIqDoAi-SRFrKVg-2q-1">
          <mxGeometry width="60" relative="1" as="geometry">
            <mxPoint x="525" y="869" as="sourcePoint" />
            <mxPoint x="770" y="869" as="targetPoint" />
            <Array as="points">
              <mxPoint x="630" y="869" />
            </Array>
          </mxGeometry>
        </mxCell>
        <mxCell id="iDOIqDoAi-SRFrKVg-2q-53" value="drawSprite" style="html=1;verticalAlign=bottom;startArrow=oval;startFill=1;endArrow=block;startSize=8;rounded=0;exitX=1;exitY=0.743;exitDx=0;exitDy=0;exitPerimeter=0;" edge="1" parent="iDOIqDoAi-SRFrKVg-2q-1">
          <mxGeometry width="60" relative="1" as="geometry">
            <mxPoint x="525" y="897.04" as="sourcePoint" />
            <mxPoint x="770" y="899" as="targetPoint" />
            <Array as="points">
              <mxPoint x="590" y="899" />
              <mxPoint x="680" y="899" />
            </Array>
          </mxGeometry>
        </mxCell>
        <mxCell id="iDOIqDoAi-SRFrKVg-2q-54" value="beginSpriteBatch()" style="html=1;verticalAlign=bottom;startArrow=oval;startFill=1;endArrow=block;startSize=8;rounded=0;" edge="1" parent="iDOIqDoAi-SRFrKVg-2q-1">
          <mxGeometry width="60" relative="1" as="geometry">
            <mxPoint x="525" y="836" as="sourcePoint" />
            <mxPoint x="770" y="836" as="targetPoint" />
          </mxGeometry>
        </mxCell>
        <mxCell id="iDOIqDoAi-SRFrKVg-2q-56" value="endSpriteBatch()" style="html=1;verticalAlign=bottom;startArrow=oval;startFill=1;endArrow=block;startSize=8;rounded=0;exitX=1.3;exitY=0.939;exitDx=0;exitDy=0;exitPerimeter=0;" edge="1" parent="iDOIqDoAi-SRFrKVg-2q-1" source="iDOIqDoAi-SRFrKVg-2q-39" target="iDOIqDoAi-SRFrKVg-2q-38">
          <mxGeometry width="60" relative="1" as="geometry">
            <mxPoint x="390" y="760" as="sourcePoint" />
            <mxPoint x="450" y="760" as="targetPoint" />
          </mxGeometry>
        </mxCell>
        <mxCell id="iDOIqDoAi-SRFrKVg-2q-58" value="gameLoop()" style="html=1;verticalAlign=bottom;startArrow=oval;startFill=1;endArrow=block;startSize=8;rounded=0;" edge="1" parent="iDOIqDoAi-SRFrKVg-2q-1" source="iDOIqDoAi-SRFrKVg-2q-10" target="iDOIqDoAi-SRFrKVg-2q-48">
          <mxGeometry width="60" relative="1" as="geometry">
            <mxPoint x="630" y="560" as="sourcePoint" />
            <mxPoint x="690" y="560" as="targetPoint" />
          </mxGeometry>
        </mxCell>
        <mxCell id="iDOIqDoAi-SRFrKVg-2q-59" value="" style="html=1;points=[];perimeter=orthogonalPerimeter;" vertex="1" parent="iDOIqDoAi-SRFrKVg-2q-1">
          <mxGeometry x="850" y="940" width="10" height="80" as="geometry" />
        </mxCell>
        <mxCell id="iDOIqDoAi-SRFrKVg-2q-60" value="glDrawArrays()" style="html=1;verticalAlign=bottom;endArrow=block;entryX=0;entryY=0;rounded=0;" edge="1" target="iDOIqDoAi-SRFrKVg-2q-59" parent="iDOIqDoAi-SRFrKVg-2q-1">
          <mxGeometry relative="1" as="geometry">
            <mxPoint x="780" y="940" as="sourcePoint" />
          </mxGeometry>
        </mxCell>
        <mxCell id="iDOIqDoAi-SRFrKVg-2q-61" value="return" style="html=1;verticalAlign=bottom;endArrow=open;dashed=1;endSize=8;exitX=0;exitY=0.95;rounded=0;" edge="1" source="iDOIqDoAi-SRFrKVg-2q-59" parent="iDOIqDoAi-SRFrKVg-2q-1">
          <mxGeometry relative="1" as="geometry">
            <mxPoint x="780" y="1016" as="targetPoint" />
          </mxGeometry>
        </mxCell>
        <mxCell id="iDOIqDoAi-SRFrKVg-2q-64" value="" style="html=1;points=[];perimeter=orthogonalPerimeter;" vertex="1" parent="iDOIqDoAi-SRFrKVg-2q-1">
          <mxGeometry x="850" y="1040" width="10" height="80" as="geometry" />
        </mxCell>
        <mxCell id="iDOIqDoAi-SRFrKVg-2q-65" value="glFlush()" style="html=1;verticalAlign=bottom;endArrow=block;entryX=0;entryY=0;rounded=0;" edge="1" target="iDOIqDoAi-SRFrKVg-2q-64" parent="iDOIqDoAi-SRFrKVg-2q-1">
          <mxGeometry relative="1" as="geometry">
            <mxPoint x="780" y="1040" as="sourcePoint" />
          </mxGeometry>
        </mxCell>
        <mxCell id="iDOIqDoAi-SRFrKVg-2q-66" value="return" style="html=1;verticalAlign=bottom;endArrow=open;dashed=1;endSize=8;exitX=0;exitY=0.95;rounded=0;" edge="1" source="iDOIqDoAi-SRFrKVg-2q-64" parent="iDOIqDoAi-SRFrKVg-2q-1">
          <mxGeometry relative="1" as="geometry">
            <mxPoint x="780" y="1116" as="targetPoint" />
          </mxGeometry>
        </mxCell>
        <mxCell id="iDOIqDoAi-SRFrKVg-2q-68" value="&lt;div&gt;step()&lt;/div&gt;" style="edgeStyle=orthogonalEdgeStyle;html=1;align=left;spacingLeft=2;endArrow=block;rounded=0;entryX=1;entryY=0;" edge="1" target="iDOIqDoAi-SRFrKVg-2q-67" parent="iDOIqDoAi-SRFrKVg-2q-1" source="iDOIqDoAi-SRFrKVg-2q-45">
          <mxGeometry relative="1" as="geometry">
            <mxPoint x="710" y="760" as="sourcePoint" />
            <Array as="points">
              <mxPoint x="740" y="760" />
              <mxPoint x="740" y="770" />
            </Array>
          </mxGeometry>
        </mxCell>
        <mxCell id="iDOIqDoAi-SRFrKVg-2q-69" value="" style="shape=curlyBracket;whiteSpace=wrap;html=1;rounded=1;flipH=1;shadow=1;" vertex="1" parent="iDOIqDoAi-SRFrKVg-2q-1">
          <mxGeometry x="960" y="650" width="20" height="480" as="geometry" />
        </mxCell>
        <UserObject label="&amp;lt; 10 ms" placeholders="1" name="Variable" id="iDOIqDoAi-SRFrKVg-2q-70">
          <mxCell style="text;html=1;strokeColor=none;fillColor=none;align=center;verticalAlign=middle;whiteSpace=wrap;overflow=hidden;shadow=1;" vertex="1" parent="iDOIqDoAi-SRFrKVg-2q-1">
            <mxGeometry x="1000" y="880" width="80" height="20" as="geometry" />
          </mxCell>
        </UserObject>
      </root>
    </mxGraphModel>
  </diagram>
</mxfile>
